<?xml version="1.0" encoding="UTF-8"?>
<svg width="40px" height="40px" viewBox="0 0 40 40" version="1.1" xmlns="http://www.w3.org/2000/svg" xmlns:xlink="http://www.w3.org/1999/xlink">
    <!-- Generator: sketchtool 51.1 (57501) - http://www.bohemiancoding.com/sketch -->
    <title>E31F4CF1-06D4-4A0F-9990-0DFB51423EA5-43869-0000B1EA7E1F1ADA</title>
    <desc>Created with sketchtool.</desc>
    <defs></defs>
    <g id="Page-1" stroke="none" stroke-width="1" fill="none" fill-rule="evenodd">
        <g id="Nada-|-Porfolio---Short" transform="translate(-647.000000, -368.000000)">
            <g id="Profile-Card" transform="translate(484.000000, 100.000000)">
                <g id="Top">
                    <g id="Social-Networks" transform="translate(163.000000, 268.000000)">
                        <g id="Github">
                            <circle id="Oval" fill="#FFFFFF" cx="20" cy="20" r="15"></circle>
                            <path d="M20,40 C8.95430446,40 0,31.0456955 0,20 C0,8.95430446 8.95430446,0 20,0 C31.0456955,0 40,8.95430446 40,20 C40,31.0456955 31.0456955,40 20,40 Z M11.6956357,20.3790269 C11.6595585,20.3789395 12.0903359,21.2906518 12.1022308,21.290371 C13.0419172,22.9671935 14.8541696,24.010451 17.9107321,24.2990116 C17.4744491,24.6243557 16.9503932,25.2420656 16.8781096,25.9561738 C16.329529,26.3049833 15.2265591,26.4197733 14.3688371,26.1540439 C13.1671227,25.7811348 12.7069603,23.4428428 10.9076157,23.7757973 C10.5178007,23.848096 10.5952474,24.1005072 10.9321405,24.3148665 C11.4807211,24.663676 11.9970324,25.100005 12.3952374,26.0291067 C12.7011518,26.7425807 13.3439593,28.0173209 15.3769347,28.0173209 C16.183671,28.0173209 16.7490318,27.922191 16.7490318,27.922191 C16.7490318,27.922191 16.7645212,29.7429766 16.7645212,30.4507428 C16.7645212,31.266957 15.6434804,31.4971713 15.6434804,31.8897405 C15.6434804,32.0451193 16.0145791,32.0597059 16.3127488,32.0597059 C16.901989,32.0597059 18.1282282,31.5764462 18.1282282,30.7278878 C18.1282282,30.0537342 18.1391998,27.7871066 18.1391998,27.3907321 C18.1391998,26.523782 18.61227,26.2491738 18.61227,26.2491738 C18.61227,26.2491738 18.6710004,30.8769246 18.4993269,31.4971713 C18.2979655,32.2265003 17.9346115,32.1231258 17.9346115,32.4484699 C17.9346115,32.9323639 19.4106162,32.5670652 19.8998211,31.5047817 C20.2780191,30.6777861 20.1127995,26.1381889 20.1127995,26.1381889 L20.5161676,26.1299443 C20.5161676,26.1299443 20.5387562,28.2082148 20.5252031,29.158245 C20.5110045,30.1418878 20.4432387,31.3861865 21.037642,31.9728206 C21.4281023,32.3584137 22.6943556,33.0351041 22.6943556,32.41676 C22.6943556,32.0571691 22.0005624,31.7616323 22.0005624,30.7887709 L22.0005624,26.3125937 C22.5543062,26.3125937 22.471051,27.7845698 22.471051,27.7845698 L22.5117105,30.5192363 C22.5117105,30.5192363 22.389732,31.5155631 23.6082265,31.9328661 C24.0380556,32.0806345 24.9583803,32.120589 25.0016214,31.8726172 C25.0448625,31.6240111 23.8934884,31.254273 23.8831622,30.4824527 C23.8767083,30.011877 23.90446,29.7372688 23.90446,27.6919767 C23.90446,25.6466846 23.6250066,24.8907193 22.6511145,24.2882302 C25.6566913,23.9844488 27.5167025,23.253788 28.4234741,21.296713 C28.4942782,21.2989978 28.7926029,20.3825161 28.7539132,20.3828321 C28.9572108,19.6439902 29.0669269,18.7700638 29.0888702,17.7350509 C29.083707,14.9287199 27.7167731,13.9361983 27.4540997,13.470062 C27.8413332,11.345495 27.3895608,10.3783414 27.1798094,10.0466553 C26.4053426,9.77585225 24.4853102,10.7430059 23.436553,11.4247699 C21.7262721,10.9332656 18.1120935,10.9808305 16.7567765,11.5516097 C14.255894,9.79170723 12.9328465,10.0612418 12.9328465,10.0612418 C12.9328465,10.0612418 12.077706,11.5674647 12.7069603,13.7713066 C11.8840893,14.8018801 11.2709697,15.531209 11.2709697,17.4642479 C11.2709697,18.5531677 11.4013383,19.5279318 11.6956357,20.3790269 Z" fill="#333333"></path>
                        </g>
                    </g>
                </g>
            </g>
        </g>
    </g>
</svg>