<?xml version="1.0" encoding="UTF-8"?>
<svg width="40px" height="40px" viewBox="0 0 40 40" version="1.1" xmlns="http://www.w3.org/2000/svg" xmlns:xlink="http://www.w3.org/1999/xlink">
    <!-- Generator: sketchtool 51.1 (57501) - http://www.bohemiancoding.com/sketch -->
    <title>40DDFAFC-68F5-46BC-84F4-DB93D7E379D2-43869-0000B1EA7E1DE3CB</title>
    <desc>Created with sketchtool.</desc>
    <defs></defs>
    <g id="Page-1" stroke="none" stroke-width="1" fill="none" fill-rule="evenodd">
        <g id="Nada-|-Porfolio---Short" transform="translate(-752.000000, -368.000000)">
            <g id="Profile-Card" transform="translate(484.000000, 100.000000)">
                <g id="Top">
                    <g id="Social-Networks" transform="translate(163.000000, 268.000000)">
                        <g id="Linkedin" transform="translate(105.000000, 0.000000)">
                            <circle id="Oval" fill="#FFFFFF" cx="20" cy="20" r="15"></circle>
                            <path d="M20,40 C8.95430446,40 0,31.0456955 0,20 C0,8.95430446 8.95430446,0 20,0 C31.0456955,0 40,8.95430446 40,20 C40,31.0456955 31.0456955,40 20,40 Z M14.9023709,29.4246358 L14.9023709,15.8065429 L10.3764738,15.8065429 L10.3764738,29.4246358 L14.9023709,29.4246358 Z M12.6395127,13.9477924 C14.2176204,13.9477924 15.2004579,12.9015052 15.2004579,11.5939174 C15.171083,10.258672 14.2176204,9.24166933 12.6693395,9.24166933 C11.1210586,9.24166933 10.1088463,10.258672 10.1088463,11.5939174 C10.1088463,12.9015052 11.0911415,13.9477924 12.6105898,13.9477924 L12.6395127,13.9477924 Z M31.2243063,29.4246358 L31.224487,21.6164375 C31.224487,17.4335484 28.9917268,15.4867637 26.013478,15.4867637 C23.6105244,15.4867637 22.5346815,16.8085419 21.9339883,17.7357931 L21.9339883,15.8069045 L17.407549,15.8069045 C17.4672025,17.0847559 17.407549,29.4249973 17.407549,29.4249973 L21.9339883,29.4249973 L21.9339883,21.8195308 C21.9339883,21.4125308 21.9633632,21.0065251 22.0830318,20.7151266 C22.4101322,19.9020305 23.1548977,19.0601924 24.4052724,19.0601924 C26.0436663,19.0601924 26.69859,20.3089401 26.69859,22.1389484 L26.69859,29.4246358 L31.2243063,29.4246358 Z" id="LinkedIN" fill="#007BB6"></path>
                        </g>
                    </g>
                </g>
            </g>
        </g>
    </g>
</svg>