<?xml version="1.0" encoding="UTF-8"?>
<svg width="40px" height="40px" viewBox="0 0 40 40" version="1.1" xmlns="http://www.w3.org/2000/svg" xmlns:xlink="http://www.w3.org/1999/xlink">
    <!-- Generator: sketchtool 51.1 (57501) - http://www.bohemiancoding.com/sketch -->
    <title>119D6EE0-B224-481D-BF4C-4D295BE2E8C3-43869-0000B1EA7E1E4235</title>
    <desc>Created with sketchtool.</desc>
    <defs></defs>
    <g id="Page-1" stroke="none" stroke-width="1" fill="none" fill-rule="evenodd">
        <g id="Nada-|-Porfolio---Short" transform="translate(-717.000000, -368.000000)">
            <g id="Profile-Card" transform="translate(484.000000, 100.000000)">
                <g id="Top">
                    <g id="Social-Networks" transform="translate(163.000000, 268.000000)">
                        <g id="Twitter" transform="translate(70.000000, 0.000000)">
                            <circle id="Oval" fill="#FFFFFF" cx="20" cy="20" r="15"></circle>
                            <path d="M20,40 C8.95430446,40 0,31.0456955 0,20 C0,8.95430446 8.95430446,0 20,0 C31.0456955,0 40,8.95430446 40,20 C40,31.0456955 31.0456955,40 20,40 Z M22.7781361,12.18872 C21.0319612,12.8242717 19.9283786,14.4625826 20.0541032,16.2562505 L20.0960114,16.9482956 L19.3975414,16.8635554 C16.8551107,16.5387179 14.6339762,15.4370951 12.7481072,13.5869336 L11.8261268,12.6689146 L11.588647,13.3468363 C11.0857487,14.8580369 11.4070448,16.4539777 12.4547498,17.5273538 C13.0135258,18.1205353 12.8878012,18.2052756 11.9239126,17.8521913 C11.588647,17.7392044 11.2952896,17.6544641 11.2673508,17.6968342 C11.1695651,17.7956978 11.5048306,19.0809245 11.7702492,19.5893658 C12.1334536,20.2955343 12.8738318,20.9875794 13.684057,21.3971571 L14.3685576,21.7219946 L13.5583324,21.736118 C12.776046,21.736118 12.7481072,21.7502414 12.8319236,22.0468321 C13.1113116,22.9648512 14.2148942,23.9393637 15.4442013,24.3630648 L16.3103041,24.6596556 L15.5559565,25.1116034 C14.4384046,25.7612784 13.125281,26.128486 11.8121574,26.1567328 C11.1835345,26.1708561 10.6666667,26.2273496 10.6666667,26.2697197 C10.6666667,26.4109534 12.3709334,27.2018621 13.3627608,27.5125763 C16.3382429,28.4305953 19.872501,28.0351409 22.5266869,26.4674469 C24.4125559,25.3517007 26.2984248,23.1343316 27.178497,20.9875794 C27.6534566,19.8435865 28.1284162,17.7533277 28.1284162,16.7505685 C28.1284162,16.1008935 28.1703244,16.0161532 28.9526107,15.2393679 C29.4136009,14.7874201 29.8466523,14.2931021 29.9304687,14.1518684 C30.0701627,13.8835244 30.0561933,13.8835244 29.3437539,14.1236217 C28.156355,14.5473228 27.9887222,14.4908293 28.5754369,13.8552777 C29.0084883,13.4033298 29.5253561,12.5841744 29.5253561,12.3440771 C29.5253561,12.301707 29.3158151,12.3723238 29.0783353,12.4994342 C28.8268861,12.6406678 28.2681102,12.8525184 27.8490282,12.9796287 L27.0946806,13.219726 L26.41018,12.7536548 C26.0330062,12.4994342 25.502169,12.2169668 25.222781,12.1322265 C24.5103417,11.9344994 23.4207285,11.9627461 22.7781361,12.18872 Z" fill="#4099FF"></path>
                        </g>
                    </g>
                </g>
            </g>
        </g>
    </g>
</svg>