<svg xmlns="http://www.w3.org/2000/svg" xmlns:xlink="http://www.w3.org/1999/xlink" viewBox="0 0 64 64"><defs><style>.cls-1{fill:url(#linear-gradient);}.cls-2{fill:url(#linear-gradient-2);}.cls-3{fill:url(#linear-gradient-3);}.cls-4{fill:url(#linear-gradient-4);}.cls-5{fill:url(#linear-gradient-5);}.cls-6{fill:url(#linear-gradient-6);}</style><linearGradient id="linear-gradient" x1="14" y1="20.98" x2="49.95" y2="20.98" gradientUnits="userSpaceOnUse"><stop offset="0" stop-color="#9f2fff"/><stop offset="1" stop-color="#0bb1d3"/></linearGradient><linearGradient id="linear-gradient-2" x1="36" y1="15.33" x2="38" y2="15.33" xlink:href="#linear-gradient"/><linearGradient id="linear-gradient-3" x1="3" y1="49" x2="61" y2="49" xlink:href="#linear-gradient"/><linearGradient id="linear-gradient-4" x1="8.99" y1="49" x2="21.74" y2="49" xlink:href="#linear-gradient"/><linearGradient id="linear-gradient-5" x1="25.63" y1="49" x2="38.37" y2="49" xlink:href="#linear-gradient"/><linearGradient id="linear-gradient-6" x1="42.26" y1="49" x2="55.01" y2="49" xlink:href="#linear-gradient"/></defs><g id="WEB"><path class="cls-1" d="M14,21c1.64,28,42.91,20.71,34.93-6.09C42.26-3.95,13.94,1.22,14,21Zm20-6.67H22.33A17.07,17.07,0,0,1,32,5a17,17,0,0,1,9.67,9.29H40a1,1,0,0,0,0,2h2.38a16.85,16.85,0,0,1,0,9.34H21.63a16.85,16.85,0,0,1,0-9.34H34A1,1,0,0,0,34,14.33ZM48,21a16,16,0,0,1-.7,4.67H44.45a18.93,18.93,0,0,0,0-9.34H47.3A16,16,0,0,1,48,21ZM32,37a17.06,17.06,0,0,1-9.68-9.29H41.67A17,17,0,0,1,32,37ZM19.56,25.67H16.7a16,16,0,0,1,0-9.34h2.86A18.7,18.7,0,0,0,19.56,25.67ZM18.77,30a16.71,16.71,0,0,1-1.31-2.33h2.72a18.82,18.82,0,0,0,6,8.22A16.07,16.07,0,0,1,18.77,30ZM43,32.61a16.12,16.12,0,0,1-5.15,3.28,18.84,18.84,0,0,0,6-8.22h2.71A15.88,15.88,0,0,1,43,32.61ZM45.23,12h0a16.71,16.71,0,0,1,1.31,2.33H43.83a18.84,18.84,0,0,0-6-8.22A16.14,16.14,0,0,1,45.23,12ZM20.67,9.71a16,16,0,0,1,5.48-3.6,18.82,18.82,0,0,0-6,8.22H17.46A15.91,15.91,0,0,1,20.67,9.71Z"/><path class="cls-2" d="M36.62,16.26a1,1,0,0,0,1.21-1.48C36.79,13.4,35.06,15.51,36.62,16.26Z"/><path class="cls-3" d="M60,41H4a1,1,0,0,0-1,1V56a1,1,0,0,0,1,1H60a1,1,0,0,0,1-1V42A1,1,0,0,0,60,41ZM59,55H5V43H59Z"/><path class="cls-4" d="M11.86,52.42a1,1,0,0,0,1.82,0l1.68-3.78,1.69,3.78a1,1,0,0,0,1.82,0l2.77-6a1,1,0,0,0-1.82-.84l-1.84,4-1.7-3.82a1,1,0,0,0-1.83,0l-1.7,3.82-1.84-4a1,1,0,0,0-1.82.84Z"/><path class="cls-5" d="M28.49,52.42a1,1,0,0,0,1.82,0L32,48.63l1.69,3.78a1,1,0,0,0,1.82,0l2.76-6a1,1,0,0,0-1.81-.84l-1.85,4-1.7-3.82a1,1,0,0,0-1.82,0l-1.7,3.82-1.85-4a1,1,0,0,0-1.81.84Z"/><path class="cls-6" d="M45.13,52.42a1,1,0,0,0,1.82,0l1.69-3.78,1.68,3.78a1,1,0,0,0,1.82,0l2.77-6a1,1,0,0,0-1.82-.84l-1.84,4-1.7-3.82a1,1,0,0,0-1.83,0L46,49.58l-1.84-4a1,1,0,0,0-1.82.84Z"/></g></svg>